<svg xmlns="http://www.w3.org/2000/svg" width="256" height="256" viewBox="0 0 256 256">
<defs><linearGradient id="cov0" x1="0" y1="0" x2="0" y2="1"><stop offset="0" stop-color="#A6CBFF"/><stop offset="0.12" stop-color="#A6CBFF"/><stop offset="0.48" stop-color="#2E6BE6"/><stop offset="1" stop-color="#0C2E7C"/></linearGradient><linearGradient id="band0" x1="0" y1="0" x2="0" y2="1"><stop offset="0" stop-color="#FF6A50"/><stop offset="0.36" stop-color="#DC3018"/><stop offset="1" stop-color="#93150A"/></linearGradient><linearGradient id="pgt0" x1="0" y1="1" x2="1" y2="0"><stop offset="0" stop-color="#FFFFFF"/><stop offset="0.55" stop-color="#EDF0F5"/><stop offset="1" stop-color="#D4DAE4"/></linearGradient><linearGradient id="pgr0" x1="0" y1="0" x2="0" y2="1"><stop offset="0" stop-color="#EDF0F5"/><stop offset="0.42" stop-color="#D4DAE4"/><stop offset="1" stop-color="#BEC5D1"/></linearGradient><linearGradient id="gls0" x1="0" y1="0" x2="0" y2="1"><stop offset="0" stop-color="#FFFFFF" stop-opacity="0.34"/><stop offset="0.24" stop-color="#FFFFFF" stop-opacity="0.10"/><stop offset="0.52" stop-color="#FFFFFF" stop-opacity="0"/><stop offset="0.84" stop-color="#000000" stop-opacity="0.05"/><stop offset="1" stop-color="#000000" stop-opacity="0.20"/></linearGradient><clipPath id="clip0"><rect x="40" y="148" width="110" height="72" rx="8"/></clipPath><linearGradient id="cov1" x1="0" y1="0" x2="0" y2="1"><stop offset="0" stop-color="#AE9BF8"/><stop offset="0.12" stop-color="#AE9BF8"/><stop offset="0.48" stop-color="#5A45C8"/><stop offset="1" stop-color="#261A5E"/></linearGradient><linearGradient id="band1" x1="0" y1="0" x2="0" y2="1"><stop offset="0" stop-color="#F4563C"/><stop offset="0.36" stop-color="#C42712"/><stop offset="1" stop-color="#80120A"/></linearGradient><linearGradient id="pgt1" x1="0" y1="1" x2="1" y2="0"><stop offset="0" stop-color="#FFFFFF"/><stop offset="0.55" stop-color="#EDF0F5"/><stop offset="1" stop-color="#D4DAE4"/></linearGradient><linearGradient id="pgr1" x1="0" y1="0" x2="0" y2="1"><stop offset="0" stop-color="#EDF0F5"/><stop offset="0.42" stop-color="#D4DAE4"/><stop offset="1" stop-color="#BEC5D1"/></linearGradient><linearGradient id="gls1" x1="0" y1="0" x2="0" y2="1"><stop offset="0" stop-color="#FFFFFF" stop-opacity="0.34"/><stop offset="0.24" stop-color="#FFFFFF" stop-opacity="0.10"/><stop offset="0.52" stop-color="#FFFFFF" stop-opacity="0"/><stop offset="0.84" stop-color="#000000" stop-opacity="0.05"/><stop offset="1" stop-color="#000000" stop-opacity="0.20"/></linearGradient><clipPath id="clip1"><rect x="56" y="115" width="110" height="72" rx="8"/></clipPath><linearGradient id="cov2" x1="0" y1="0" x2="0" y2="1"><stop offset="0" stop-color="#6D80C8"/><stop offset="0.12" stop-color="#6D80C8"/><stop offset="0.48" stop-color="#26356E"/><stop offset="1" stop-color="#111838"/></linearGradient><linearGradient id="band2" x1="0" y1="0" x2="0" y2="1"><stop offset="0" stop-color="#DE4830"/><stop offset="0.36" stop-color="#A81E0C"/><stop offset="1" stop-color="#66100A"/></linearGradient><linearGradient id="pgt2" x1="0" y1="1" x2="1" y2="0"><stop offset="0" stop-color="#FFFFFF"/><stop offset="0.55" stop-color="#EDF0F5"/><stop offset="1" stop-color="#D4DAE4"/></linearGradient><linearGradient id="pgr2" x1="0" y1="0" x2="0" y2="1"><stop offset="0" stop-color="#EDF0F5"/><stop offset="0.42" stop-color="#D4DAE4"/><stop offset="1" stop-color="#BEC5D1"/></linearGradient><linearGradient id="gls2" x1="0" y1="0" x2="0" y2="1"><stop offset="0" stop-color="#FFFFFF" stop-opacity="0.34"/><stop offset="0.24" stop-color="#FFFFFF" stop-opacity="0.10"/><stop offset="0.52" stop-color="#FFFFFF" stop-opacity="0"/><stop offset="0.84" stop-color="#000000" stop-opacity="0.05"/><stop offset="1" stop-color="#000000" stop-opacity="0.20"/></linearGradient><clipPath id="clip2"><rect x="72" y="82" width="110" height="72" rx="8"/></clipPath><linearGradient id="cs" x1="0" y1="0" x2="0" y2="1"><stop offset="0" stop-color="rgba(8,14,36,0)"/><stop offset="1" stop-color="rgba(8,14,36,0.5)"/></linearGradient><radialGradient id="amb" cx="0.5" cy="0.5" r="0.5"><stop offset="0" stop-color="#0A1028" stop-opacity="0.26"/><stop offset="0.55" stop-color="#0A1028" stop-opacity="0.12"/><stop offset="1" stop-color="#0A1028" stop-opacity="0"/></radialGradient></defs>
<g transform="translate(128 128) scale(1.23) rotate(-6 118.5 150.5) translate(-118.5 -150.5)">
<ellipse cx="121" cy="224" rx="92" ry="12" fill="url(#amb)"/>
<polygon points="182,82 198,70 198,142 182,154" fill="url(#pgr2)" /><polygon points="72,82 88,70 198,70 182,82" fill="url(#pgt2)" /><line x1="80" y1="76" x2="190" y2="76" stroke="#98A2B2" stroke-width="1.3" opacity="0.45"/><line x1="182" y1="106.48" x2="198" y2="94.48" stroke="#98A2B2" stroke-width="1.2" opacity="0.4"/><line x1="182" y1="129.52" x2="198" y2="117.52" stroke="#98A2B2" stroke-width="1.2" opacity="0.4"/><rect x="72" y="82" width="110" height="72" fill="url(#cov2)" rx="8"/><rect x="72" y="82" width="110" height="72" fill="url(#gls2)" rx="8"/><path d="M76 82.7 H178" stroke="#0A1436" stroke-opacity="0.34" stroke-width="1.5" stroke-linecap="round"/><path d="M78.4 84.6 H175.6" stroke="#FFFFFF" stroke-opacity="0.4" stroke-width="1.5" stroke-linecap="round"/><rect x="72" y="86" width="110" height="12" fill="url(#band2)" clip-path="url(#clip2)"/><path d="M76.8 87 H177.2" stroke="#FFFFFF" stroke-opacity="0.3" stroke-width="1.3" stroke-linecap="round"/><path d="M76.8 97.3 H177.2" stroke="#5E0C03" stroke-opacity="0.45" stroke-width="1.3" stroke-linecap="round"/><g transform="rotate(-18 127 92.2)" fill="none" stroke="#FFFFFF" stroke-width="1.8" stroke-opacity="0.92"><circle cx="124.6" cy="90.47" r="3.2"/><circle cx="129.4" cy="93.93" r="3.2"/></g>
<rect x="72" y="94" width="110" height="9.5" fill="url(#cs)" />
<polygon points="166,115 182,103 182,175 166,187" fill="url(#pgr1)" /><polygon points="56,115 72,103 182,103 166,115" fill="url(#pgt1)" /><line x1="64" y1="109" x2="174" y2="109" stroke="#98A2B2" stroke-width="1.3" opacity="0.45"/><line x1="166" y1="139.48" x2="182" y2="127.48" stroke="#98A2B2" stroke-width="1.2" opacity="0.4"/><line x1="166" y1="162.52" x2="182" y2="150.52" stroke="#98A2B2" stroke-width="1.2" opacity="0.4"/><rect x="56" y="115" width="110" height="72" fill="url(#cov1)" rx="8"/><rect x="56" y="115" width="110" height="72" fill="url(#gls1)" rx="8"/><path d="M60 115.7 H162" stroke="#0A1436" stroke-opacity="0.34" stroke-width="1.5" stroke-linecap="round"/><path d="M62.4 117.6 H159.6" stroke="#FFFFFF" stroke-opacity="0.4" stroke-width="1.5" stroke-linecap="round"/><rect x="56" y="119" width="110" height="12" fill="url(#band1)" clip-path="url(#clip1)"/><path d="M60.8 120 H161.2" stroke="#FFFFFF" stroke-opacity="0.3" stroke-width="1.3" stroke-linecap="round"/><path d="M60.8 130.3 H161.2" stroke="#5E0C03" stroke-opacity="0.45" stroke-width="1.3" stroke-linecap="round"/><g transform="rotate(-18 111 125.2)" fill="none" stroke="#FFFFFF" stroke-width="1.8" stroke-opacity="0.92"><circle cx="108.6" cy="123.47" r="3.2"/><circle cx="113.4" cy="126.93" r="3.2"/></g>
<rect x="56" y="127" width="110" height="9.5" fill="url(#cs)" />
<polygon points="150,148 166,136 166,208 150,220" fill="url(#pgr0)" /><polygon points="40,148 56,136 166,136 150,148" fill="url(#pgt0)" /><line x1="48" y1="142" x2="158" y2="142" stroke="#98A2B2" stroke-width="1.3" opacity="0.45"/><line x1="150" y1="172.48" x2="166" y2="160.48" stroke="#98A2B2" stroke-width="1.2" opacity="0.4"/><line x1="150" y1="195.52" x2="166" y2="183.52" stroke="#98A2B2" stroke-width="1.2" opacity="0.4"/><rect x="40" y="148" width="110" height="72" fill="url(#cov0)" rx="8"/><rect x="40" y="148" width="110" height="72" fill="url(#gls0)" rx="8"/><path d="M44 148.7 H146" stroke="#0A1436" stroke-opacity="0.34" stroke-width="1.5" stroke-linecap="round"/><path d="M46.4 150.6 H143.6" stroke="#FFFFFF" stroke-opacity="0.4" stroke-width="1.5" stroke-linecap="round"/><rect x="40" y="152" width="110" height="12" fill="url(#band0)" clip-path="url(#clip0)"/><path d="M44.8 153 H145.2" stroke="#FFFFFF" stroke-opacity="0.3" stroke-width="1.3" stroke-linecap="round"/><path d="M44.8 163.3 H145.2" stroke="#5E0C03" stroke-opacity="0.45" stroke-width="1.3" stroke-linecap="round"/><g transform="rotate(-18 95 158.2)" fill="none" stroke="#FFFFFF" stroke-width="1.8" stroke-opacity="0.92"><circle cx="92.6" cy="156.47" r="3.2"/><circle cx="97.4" cy="159.93" r="3.2"/></g><line x1="75" y1="192" x2="75" y2="196" stroke="#22B77C" stroke-width="2.2" /><line x1="75" y1="212" x2="75" y2="216" stroke="#22B77C" stroke-width="2.2" /><rect x="69" y="196" width="12" height="16" fill="#22B77C" rx="1.6"/><path d="M70.5 198 V210" stroke="#FFFFFF" stroke-opacity="0.4" stroke-width="1.5" stroke-linecap="round"/><rect x="69" y="210" width="12" height="2" fill="#0B7A50" rx="1" opacity="0.7"/><line x1="95" y1="183" x2="95" y2="187" stroke="#FF4433" stroke-width="2.2" /><line x1="95" y1="203" x2="95" y2="207" stroke="#FF4433" stroke-width="2.2" /><rect x="89" y="187" width="12" height="16" fill="#FF4433" rx="1.6"/><path d="M90.5 189 V201" stroke="#FFFFFF" stroke-opacity="0.4" stroke-width="1.5" stroke-linecap="round"/><rect x="89" y="201" width="12" height="2" fill="#B81A0E" rx="1" opacity="0.7"/><line x1="115" y1="172" x2="115" y2="176" stroke="#FF4433" stroke-width="2.2" /><line x1="115" y1="192" x2="115" y2="196" stroke="#FF4433" stroke-width="2.2" /><rect x="109" y="176" width="12" height="16" fill="#FF4433" rx="1.6"/><path d="M110.5 178 V190" stroke="#FFFFFF" stroke-opacity="0.4" stroke-width="1.5" stroke-linecap="round"/><rect x="109" y="190" width="12" height="2" fill="#B81A0E" rx="1" opacity="0.7"/>
</g>
</svg>